<mxfile host="app.diagrams.net" agent="Mozilla/5.0 (Windows NT 10.0; Win64; x64) AppleWebKit/537.36 (KHTML, like Gecko) Chrome/132.0.0.0 YaBrowser/25.2.0.0 Safari/537.36" version="26.1.0">
  <diagram name="Page-1" id="2a216829-ef6e-dabb-86c1-c78162f3ba2b">
    <mxGraphModel dx="417" dy="505" grid="1" gridSize="10" guides="1" tooltips="1" connect="1" arrows="1" fold="1" page="1" pageScale="1" pageWidth="850" pageHeight="1100" background="none" math="0" shadow="0">
      <root>
        <mxCell id="0" />
        <mxCell id="1" parent="0" />
        <mxCell id="q75rT8eUtKFCvKkvTnT9-8" value="Список покупок в магазинах" style="swimlane;horizontal=0;whiteSpace=wrap;html=1;" parent="1" vertex="1">
          <mxGeometry x="210" y="753.38" width="1530" height="286.62" as="geometry" />
        </mxCell>
        <mxCell id="q75rT8eUtKFCvKkvTnT9-11" value="Пользователь" style="whiteSpace=wrap;html=1;rotation=-90;align=center;" parent="q75rT8eUtKFCvKkvTnT9-8" vertex="1">
          <mxGeometry x="-36" y="59" width="148" height="30" as="geometry" />
        </mxCell>
        <mxCell id="q75rT8eUtKFCvKkvTnT9-12" value="Сервер" style="whiteSpace=wrap;html=1;rotation=-90;" parent="q75rT8eUtKFCvKkvTnT9-8" vertex="1">
          <mxGeometry x="-31" y="202" width="138" height="30" as="geometry" />
        </mxCell>
        <mxCell id="q75rT8eUtKFCvKkvTnT9-13" value="" style="endArrow=none;html=1;rounded=0;exitX=0;exitY=1;exitDx=0;exitDy=0;entryX=1;entryY=0.5;entryDx=0;entryDy=0;" parent="q75rT8eUtKFCvKkvTnT9-8" target="q75rT8eUtKFCvKkvTnT9-8" edge="1" source="q75rT8eUtKFCvKkvTnT9-11">
          <mxGeometry width="50" height="50" relative="1" as="geometry">
            <mxPoint x="53.00000000000006" y="142" as="sourcePoint" />
            <mxPoint x="948.3800000000001" y="140.5" as="targetPoint" />
          </mxGeometry>
        </mxCell>
        <mxCell id="q75rT8eUtKFCvKkvTnT9-36" style="edgeStyle=orthogonalEdgeStyle;rounded=0;orthogonalLoop=1;jettySize=auto;html=1;entryX=0;entryY=0.5;entryDx=0;entryDy=0;" parent="q75rT8eUtKFCvKkvTnT9-8" source="q75rT8eUtKFCvKkvTnT9-14" target="q75rT8eUtKFCvKkvTnT9-33" edge="1">
          <mxGeometry relative="1" as="geometry" />
        </mxCell>
        <mxCell id="q75rT8eUtKFCvKkvTnT9-14" value="" style="ellipse;whiteSpace=wrap;html=1;aspect=fixed;" parent="q75rT8eUtKFCvKkvTnT9-8" vertex="1">
          <mxGeometry x="97.5" y="48.62" width="30" height="30" as="geometry" />
        </mxCell>
        <mxCell id="q75rT8eUtKFCvKkvTnT9-15" value="&lt;font style=&quot;font-size: 8px;&quot;&gt;Открытие приложения&lt;/font&gt;" style="text;html=1;align=center;verticalAlign=middle;whiteSpace=wrap;rounded=0;" parent="q75rT8eUtKFCvKkvTnT9-8" vertex="1">
          <mxGeometry x="60" y="70" width="105" height="20" as="geometry" />
        </mxCell>
        <mxCell id="q75rT8eUtKFCvKkvTnT9-21" value="" style="edgeStyle=orthogonalEdgeStyle;rounded=0;orthogonalLoop=1;jettySize=auto;html=1;" parent="q75rT8eUtKFCvKkvTnT9-8" source="q75rT8eUtKFCvKkvTnT9-16" target="q75rT8eUtKFCvKkvTnT9-20" edge="1">
          <mxGeometry relative="1" as="geometry" />
        </mxCell>
        <mxCell id="5jrLgaf3onoMuKUvjU_7-59" style="edgeStyle=orthogonalEdgeStyle;rounded=0;orthogonalLoop=1;jettySize=auto;html=1;entryX=0.5;entryY=0;entryDx=0;entryDy=0;" edge="1" parent="q75rT8eUtKFCvKkvTnT9-8" source="q75rT8eUtKFCvKkvTnT9-16" target="5jrLgaf3onoMuKUvjU_7-43">
          <mxGeometry relative="1" as="geometry">
            <Array as="points">
              <mxPoint x="370" y="7" />
              <mxPoint x="1422" y="7" />
            </Array>
          </mxGeometry>
        </mxCell>
        <mxCell id="q75rT8eUtKFCvKkvTnT9-16" value="&lt;font style=&quot;font-size: 9px;&quot;&gt;Регистрация&lt;/font&gt;" style="rounded=1;whiteSpace=wrap;html=1;" parent="q75rT8eUtKFCvKkvTnT9-8" vertex="1">
          <mxGeometry x="334" y="23.619999999999997" width="60" height="30" as="geometry" />
        </mxCell>
        <mxCell id="q75rT8eUtKFCvKkvTnT9-27" style="edgeStyle=orthogonalEdgeStyle;rounded=0;orthogonalLoop=1;jettySize=auto;html=1;entryX=0.5;entryY=0;entryDx=0;entryDy=0;" parent="q75rT8eUtKFCvKkvTnT9-8" source="q75rT8eUtKFCvKkvTnT9-17" target="q75rT8eUtKFCvKkvTnT9-25" edge="1">
          <mxGeometry relative="1" as="geometry">
            <Array as="points">
              <mxPoint x="280" y="64.62" />
              <mxPoint x="380" y="64.62" />
            </Array>
          </mxGeometry>
        </mxCell>
        <mxCell id="5jrLgaf3onoMuKUvjU_7-60" style="edgeStyle=orthogonalEdgeStyle;rounded=0;orthogonalLoop=1;jettySize=auto;html=1;entryX=0.5;entryY=0;entryDx=0;entryDy=0;" edge="1" parent="q75rT8eUtKFCvKkvTnT9-8" source="q75rT8eUtKFCvKkvTnT9-17" target="5jrLgaf3onoMuKUvjU_7-43">
          <mxGeometry relative="1" as="geometry">
            <Array as="points">
              <mxPoint x="290" y="7" />
              <mxPoint x="1422" y="7" />
            </Array>
          </mxGeometry>
        </mxCell>
        <mxCell id="q75rT8eUtKFCvKkvTnT9-17" value="&lt;font style=&quot;font-size: 9px;&quot;&gt;Вход&lt;/font&gt;" style="rounded=1;whiteSpace=wrap;html=1;" parent="q75rT8eUtKFCvKkvTnT9-8" vertex="1">
          <mxGeometry x="250" y="81.62" width="60" height="30" as="geometry" />
        </mxCell>
        <mxCell id="q75rT8eUtKFCvKkvTnT9-30" value="" style="edgeStyle=orthogonalEdgeStyle;rounded=0;orthogonalLoop=1;jettySize=auto;html=1;" parent="q75rT8eUtKFCvKkvTnT9-8" source="q75rT8eUtKFCvKkvTnT9-20" target="q75rT8eUtKFCvKkvTnT9-29" edge="1">
          <mxGeometry relative="1" as="geometry" />
        </mxCell>
        <mxCell id="q75rT8eUtKFCvKkvTnT9-20" value="&lt;font style=&quot;font-size: 9px;&quot;&gt;Ввод данных&lt;/font&gt;" style="whiteSpace=wrap;html=1;rounded=1;" parent="q75rT8eUtKFCvKkvTnT9-8" vertex="1">
          <mxGeometry x="434" y="21.119999999999997" width="70" height="35" as="geometry" />
        </mxCell>
        <mxCell id="q75rT8eUtKFCvKkvTnT9-32" style="edgeStyle=orthogonalEdgeStyle;rounded=0;orthogonalLoop=1;jettySize=auto;html=1;entryX=0.5;entryY=0;entryDx=0;entryDy=0;" parent="q75rT8eUtKFCvKkvTnT9-8" source="q75rT8eUtKFCvKkvTnT9-25" target="q75rT8eUtKFCvKkvTnT9-31" edge="1">
          <mxGeometry relative="1" as="geometry" />
        </mxCell>
        <mxCell id="q75rT8eUtKFCvKkvTnT9-25" value="&lt;font style=&quot;font-size: 9px;&quot;&gt;Ввод данных&lt;/font&gt;" style="whiteSpace=wrap;html=1;rounded=1;" parent="q75rT8eUtKFCvKkvTnT9-8" vertex="1">
          <mxGeometry x="345" y="79.12" width="70" height="35" as="geometry" />
        </mxCell>
        <mxCell id="q75rT8eUtKFCvKkvTnT9-42" value="" style="edgeStyle=orthogonalEdgeStyle;rounded=0;orthogonalLoop=1;jettySize=auto;html=1;" parent="q75rT8eUtKFCvKkvTnT9-8" source="q75rT8eUtKFCvKkvTnT9-29" target="q75rT8eUtKFCvKkvTnT9-41" edge="1">
          <mxGeometry relative="1" as="geometry" />
        </mxCell>
        <mxCell id="q75rT8eUtKFCvKkvTnT9-29" value="&lt;font style=&quot;font-size: 9px;&quot;&gt;Проверяет наличие&lt;/font&gt;" style="whiteSpace=wrap;html=1;rounded=1;" parent="q75rT8eUtKFCvKkvTnT9-8" vertex="1">
          <mxGeometry x="429" y="151.62" width="80" height="40" as="geometry" />
        </mxCell>
        <mxCell id="q75rT8eUtKFCvKkvTnT9-48" style="edgeStyle=orthogonalEdgeStyle;rounded=0;orthogonalLoop=1;jettySize=auto;html=1;entryX=0;entryY=0.5;entryDx=0;entryDy=0;" parent="q75rT8eUtKFCvKkvTnT9-8" source="q75rT8eUtKFCvKkvTnT9-31" target="q75rT8eUtKFCvKkvTnT9-46" edge="1">
          <mxGeometry relative="1" as="geometry" />
        </mxCell>
        <mxCell id="q75rT8eUtKFCvKkvTnT9-31" value="&lt;font style=&quot;font-size: 9px;&quot;&gt;Проверяет данные&lt;/font&gt;" style="whiteSpace=wrap;html=1;rounded=1;" parent="q75rT8eUtKFCvKkvTnT9-8" vertex="1">
          <mxGeometry x="345" y="188.62" width="70" height="35" as="geometry" />
        </mxCell>
        <mxCell id="q75rT8eUtKFCvKkvTnT9-37" style="edgeStyle=orthogonalEdgeStyle;rounded=0;orthogonalLoop=1;jettySize=auto;html=1;entryX=0;entryY=0.5;entryDx=0;entryDy=0;" parent="q75rT8eUtKFCvKkvTnT9-8" source="q75rT8eUtKFCvKkvTnT9-33" target="q75rT8eUtKFCvKkvTnT9-16" edge="1">
          <mxGeometry relative="1" as="geometry" />
        </mxCell>
        <mxCell id="q75rT8eUtKFCvKkvTnT9-38" value="&lt;font style=&quot;font-size: 9px;&quot;&gt;да&lt;/font&gt;" style="edgeLabel;html=1;align=center;verticalAlign=middle;resizable=0;points=[];" parent="q75rT8eUtKFCvKkvTnT9-37" vertex="1" connectable="0">
          <mxGeometry x="-0.8118" y="2" relative="1" as="geometry">
            <mxPoint x="14" y="-7" as="offset" />
          </mxGeometry>
        </mxCell>
        <mxCell id="q75rT8eUtKFCvKkvTnT9-39" style="edgeStyle=orthogonalEdgeStyle;rounded=0;orthogonalLoop=1;jettySize=auto;html=1;entryX=0;entryY=0.433;entryDx=0;entryDy=0;entryPerimeter=0;exitX=0.5;exitY=1;exitDx=0;exitDy=0;" parent="q75rT8eUtKFCvKkvTnT9-8" source="q75rT8eUtKFCvKkvTnT9-33" target="q75rT8eUtKFCvKkvTnT9-17" edge="1">
          <mxGeometry relative="1" as="geometry">
            <mxPoint x="250" y="94.62" as="targetPoint" />
            <Array as="points">
              <mxPoint x="208" y="94.62" />
            </Array>
            <mxPoint x="205" y="74.62" as="sourcePoint" />
          </mxGeometry>
        </mxCell>
        <mxCell id="q75rT8eUtKFCvKkvTnT9-40" value="&lt;font style=&quot;font-size: 9px;&quot;&gt;нет&lt;/font&gt;" style="edgeLabel;html=1;align=center;verticalAlign=middle;resizable=0;points=[];" parent="q75rT8eUtKFCvKkvTnT9-39" vertex="1" connectable="0">
          <mxGeometry x="-0.4414" relative="1" as="geometry">
            <mxPoint x="15" y="-5" as="offset" />
          </mxGeometry>
        </mxCell>
        <mxCell id="q75rT8eUtKFCvKkvTnT9-33" value="&lt;font style=&quot;font-size: 8px;&quot;&gt;Пользователь новый&lt;/font&gt;" style="rhombus;whiteSpace=wrap;html=1;" parent="q75rT8eUtKFCvKkvTnT9-8" vertex="1">
          <mxGeometry x="170" y="6.619999999999997" width="75.83" height="65" as="geometry" />
        </mxCell>
        <mxCell id="q75rT8eUtKFCvKkvTnT9-44" value="" style="edgeStyle=orthogonalEdgeStyle;rounded=0;orthogonalLoop=1;jettySize=auto;html=1;entryX=0;entryY=0.5;entryDx=0;entryDy=0;" parent="q75rT8eUtKFCvKkvTnT9-8" source="q75rT8eUtKFCvKkvTnT9-41" target="q75rT8eUtKFCvKkvTnT9-43" edge="1">
          <mxGeometry relative="1" as="geometry" />
        </mxCell>
        <mxCell id="q75rT8eUtKFCvKkvTnT9-41" value="&lt;font style=&quot;font-size: 9px;&quot;&gt;Сохраняет данные&lt;/font&gt;" style="whiteSpace=wrap;html=1;rounded=1;" parent="q75rT8eUtKFCvKkvTnT9-8" vertex="1">
          <mxGeometry x="544" y="154.62" width="68" height="34" as="geometry" />
        </mxCell>
        <mxCell id="5jrLgaf3onoMuKUvjU_7-11" style="edgeStyle=orthogonalEdgeStyle;rounded=0;orthogonalLoop=1;jettySize=auto;html=1;entryX=0.5;entryY=0;entryDx=0;entryDy=0;exitX=0.5;exitY=0;exitDx=0;exitDy=0;" edge="1" parent="q75rT8eUtKFCvKkvTnT9-8" source="q75rT8eUtKFCvKkvTnT9-43" target="q75rT8eUtKFCvKkvTnT9-53">
          <mxGeometry relative="1" as="geometry">
            <Array as="points">
              <mxPoint x="660" y="49" />
              <mxPoint x="660" y="25" />
              <mxPoint x="738" y="25" />
            </Array>
          </mxGeometry>
        </mxCell>
        <mxCell id="5jrLgaf3onoMuKUvjU_7-12" style="edgeStyle=orthogonalEdgeStyle;rounded=0;orthogonalLoop=1;jettySize=auto;html=1;entryX=0.5;entryY=0;entryDx=0;entryDy=0;" edge="1" parent="q75rT8eUtKFCvKkvTnT9-8" source="q75rT8eUtKFCvKkvTnT9-43" target="q75rT8eUtKFCvKkvTnT9-54">
          <mxGeometry relative="1" as="geometry">
            <Array as="points">
              <mxPoint x="660" y="25" />
              <mxPoint x="890" y="25" />
            </Array>
          </mxGeometry>
        </mxCell>
        <mxCell id="5jrLgaf3onoMuKUvjU_7-16" style="edgeStyle=orthogonalEdgeStyle;rounded=0;orthogonalLoop=1;jettySize=auto;html=1;entryX=0.5;entryY=0;entryDx=0;entryDy=0;" edge="1" parent="q75rT8eUtKFCvKkvTnT9-8" source="q75rT8eUtKFCvKkvTnT9-43" target="q75rT8eUtKFCvKkvTnT9-55">
          <mxGeometry relative="1" as="geometry">
            <Array as="points">
              <mxPoint x="660" y="25" />
              <mxPoint x="990" y="25" />
            </Array>
          </mxGeometry>
        </mxCell>
        <mxCell id="5jrLgaf3onoMuKUvjU_7-21" style="edgeStyle=orthogonalEdgeStyle;rounded=0;orthogonalLoop=1;jettySize=auto;html=1;entryX=0.5;entryY=0;entryDx=0;entryDy=0;" edge="1" parent="q75rT8eUtKFCvKkvTnT9-8" source="q75rT8eUtKFCvKkvTnT9-43" target="q75rT8eUtKFCvKkvTnT9-56">
          <mxGeometry relative="1" as="geometry">
            <Array as="points">
              <mxPoint x="660" y="25" />
              <mxPoint x="1110" y="25" />
            </Array>
          </mxGeometry>
        </mxCell>
        <mxCell id="5jrLgaf3onoMuKUvjU_7-22" style="edgeStyle=orthogonalEdgeStyle;rounded=0;orthogonalLoop=1;jettySize=auto;html=1;entryX=0.5;entryY=0;entryDx=0;entryDy=0;" edge="1" parent="q75rT8eUtKFCvKkvTnT9-8" source="q75rT8eUtKFCvKkvTnT9-43" target="q75rT8eUtKFCvKkvTnT9-57">
          <mxGeometry relative="1" as="geometry">
            <Array as="points">
              <mxPoint x="660" y="25" />
              <mxPoint x="1210" y="25" />
            </Array>
          </mxGeometry>
        </mxCell>
        <mxCell id="5jrLgaf3onoMuKUvjU_7-23" style="edgeStyle=orthogonalEdgeStyle;rounded=0;orthogonalLoop=1;jettySize=auto;html=1;entryX=0.5;entryY=0;entryDx=0;entryDy=0;" edge="1" parent="q75rT8eUtKFCvKkvTnT9-8" source="q75rT8eUtKFCvKkvTnT9-43" target="q75rT8eUtKFCvKkvTnT9-58">
          <mxGeometry relative="1" as="geometry">
            <Array as="points">
              <mxPoint x="660" y="25" />
              <mxPoint x="1320" y="25" />
            </Array>
          </mxGeometry>
        </mxCell>
        <mxCell id="5jrLgaf3onoMuKUvjU_7-58" style="edgeStyle=orthogonalEdgeStyle;rounded=0;orthogonalLoop=1;jettySize=auto;html=1;entryX=0.5;entryY=0;entryDx=0;entryDy=0;" edge="1" parent="q75rT8eUtKFCvKkvTnT9-8" source="q75rT8eUtKFCvKkvTnT9-43" target="5jrLgaf3onoMuKUvjU_7-43">
          <mxGeometry relative="1" as="geometry">
            <Array as="points">
              <mxPoint x="642" y="7" />
              <mxPoint x="1422" y="7" />
            </Array>
          </mxGeometry>
        </mxCell>
        <mxCell id="q75rT8eUtKFCvKkvTnT9-43" value="&lt;font style=&quot;font-size: 9px;&quot;&gt;Список покупок&lt;/font&gt;" style="whiteSpace=wrap;html=1;rounded=1;" parent="q75rT8eUtKFCvKkvTnT9-8" vertex="1">
          <mxGeometry x="612" y="48.62" width="60" height="30" as="geometry" />
        </mxCell>
        <mxCell id="q75rT8eUtKFCvKkvTnT9-49" style="edgeStyle=orthogonalEdgeStyle;rounded=0;orthogonalLoop=1;jettySize=auto;html=1;entryX=0.5;entryY=1;entryDx=0;entryDy=0;" parent="q75rT8eUtKFCvKkvTnT9-8" source="q75rT8eUtKFCvKkvTnT9-46" target="q75rT8eUtKFCvKkvTnT9-43" edge="1">
          <mxGeometry relative="1" as="geometry" />
        </mxCell>
        <mxCell id="q75rT8eUtKFCvKkvTnT9-50" value="да" style="edgeLabel;html=1;align=center;verticalAlign=middle;resizable=0;points=[];" parent="q75rT8eUtKFCvKkvTnT9-49" vertex="1" connectable="0">
          <mxGeometry x="-0.3016" y="1" relative="1" as="geometry">
            <mxPoint x="1" y="20" as="offset" />
          </mxGeometry>
        </mxCell>
        <mxCell id="5jrLgaf3onoMuKUvjU_7-2" style="edgeStyle=orthogonalEdgeStyle;rounded=0;orthogonalLoop=1;jettySize=auto;html=1;entryX=1;entryY=0.5;entryDx=0;entryDy=0;exitX=0.5;exitY=1;exitDx=0;exitDy=0;" edge="1" parent="q75rT8eUtKFCvKkvTnT9-8" source="q75rT8eUtKFCvKkvTnT9-46">
          <mxGeometry relative="1" as="geometry">
            <mxPoint x="544" y="249.62000000000035" as="targetPoint" />
            <Array as="points">
              <mxPoint x="642" y="249.62" />
            </Array>
          </mxGeometry>
        </mxCell>
        <mxCell id="5jrLgaf3onoMuKUvjU_7-3" value="нет" style="edgeLabel;html=1;align=center;verticalAlign=middle;resizable=0;points=[];" vertex="1" connectable="0" parent="5jrLgaf3onoMuKUvjU_7-2">
          <mxGeometry x="-0.1655" y="-3" relative="1" as="geometry">
            <mxPoint as="offset" />
          </mxGeometry>
        </mxCell>
        <mxCell id="q75rT8eUtKFCvKkvTnT9-46" value="&lt;font style=&quot;font-size: 9px;&quot;&gt;Данные верны&lt;/font&gt;" style="rhombus;whiteSpace=wrap;html=1;" parent="q75rT8eUtKFCvKkvTnT9-8" vertex="1">
          <mxGeometry x="612" y="176.62" width="59" height="59" as="geometry" />
        </mxCell>
        <mxCell id="5jrLgaf3onoMuKUvjU_7-38" style="edgeStyle=orthogonalEdgeStyle;rounded=0;orthogonalLoop=1;jettySize=auto;html=1;" edge="1" parent="q75rT8eUtKFCvKkvTnT9-8" source="q75rT8eUtKFCvKkvTnT9-53" target="5jrLgaf3onoMuKUvjU_7-37">
          <mxGeometry relative="1" as="geometry" />
        </mxCell>
        <mxCell id="5jrLgaf3onoMuKUvjU_7-57" style="edgeStyle=orthogonalEdgeStyle;rounded=0;orthogonalLoop=1;jettySize=auto;html=1;entryX=0.5;entryY=0;entryDx=0;entryDy=0;" edge="1" parent="q75rT8eUtKFCvKkvTnT9-8" source="q75rT8eUtKFCvKkvTnT9-53" target="5jrLgaf3onoMuKUvjU_7-43">
          <mxGeometry relative="1" as="geometry">
            <Array as="points">
              <mxPoint x="750" y="7" />
              <mxPoint x="1422" y="7" />
            </Array>
          </mxGeometry>
        </mxCell>
        <mxCell id="q75rT8eUtKFCvKkvTnT9-53" value="&lt;font style=&quot;font-size: 9px;&quot;&gt;Создание списка&lt;/font&gt;" style="whiteSpace=wrap;html=1;rounded=1;" parent="q75rT8eUtKFCvKkvTnT9-8" vertex="1">
          <mxGeometry x="707.5" y="56.120000000000005" width="60" height="30" as="geometry" />
        </mxCell>
        <mxCell id="5jrLgaf3onoMuKUvjU_7-4" style="edgeStyle=orthogonalEdgeStyle;rounded=0;orthogonalLoop=1;jettySize=auto;html=1;entryX=0;entryY=0.5;entryDx=0;entryDy=0;" edge="1" parent="q75rT8eUtKFCvKkvTnT9-8" target="q75rT8eUtKFCvKkvTnT9-25">
          <mxGeometry relative="1" as="geometry">
            <mxPoint x="464" y="249.65379310344815" as="sourcePoint" />
          </mxGeometry>
        </mxCell>
        <mxCell id="5jrLgaf3onoMuKUvjU_7-1" value="&lt;font style=&quot;font-size: 9px;&quot;&gt;Ошибка ввода&lt;/font&gt;" style="rounded=1;whiteSpace=wrap;html=1;" vertex="1" parent="q75rT8eUtKFCvKkvTnT9-8">
          <mxGeometry x="464" y="226" width="80" height="40" as="geometry" />
        </mxCell>
        <mxCell id="5jrLgaf3onoMuKUvjU_7-9" style="edgeStyle=orthogonalEdgeStyle;rounded=0;orthogonalLoop=1;jettySize=auto;html=1;entryX=0.5;entryY=1;entryDx=0;entryDy=0;" edge="1" parent="q75rT8eUtKFCvKkvTnT9-8" source="5jrLgaf3onoMuKUvjU_7-5" target="5jrLgaf3onoMuKUvjU_7-8">
          <mxGeometry relative="1" as="geometry" />
        </mxCell>
        <mxCell id="5jrLgaf3onoMuKUvjU_7-49" style="edgeStyle=orthogonalEdgeStyle;rounded=0;orthogonalLoop=1;jettySize=auto;html=1;entryX=0;entryY=0.5;entryDx=0;entryDy=0;exitX=0;exitY=0.5;exitDx=0;exitDy=0;" edge="1" parent="q75rT8eUtKFCvKkvTnT9-8" source="5jrLgaf3onoMuKUvjU_7-5" target="q75rT8eUtKFCvKkvTnT9-53">
          <mxGeometry relative="1" as="geometry" />
        </mxCell>
        <mxCell id="5jrLgaf3onoMuKUvjU_7-5" value="&lt;font style=&quot;font-size: 9px;&quot;&gt;Сохранение информации&lt;/font&gt;" style="whiteSpace=wrap;html=1;rounded=1;" vertex="1" parent="q75rT8eUtKFCvKkvTnT9-8">
          <mxGeometry x="700" y="162.12" width="75" height="37.5" as="geometry" />
        </mxCell>
        <mxCell id="5jrLgaf3onoMuKUvjU_7-32" style="edgeStyle=orthogonalEdgeStyle;rounded=0;orthogonalLoop=1;jettySize=auto;html=1;entryX=0;entryY=0.5;entryDx=0;entryDy=0;exitX=0.5;exitY=0;exitDx=0;exitDy=0;" edge="1" parent="q75rT8eUtKFCvKkvTnT9-8" source="5jrLgaf3onoMuKUvjU_7-8" target="q75rT8eUtKFCvKkvTnT9-54">
          <mxGeometry relative="1" as="geometry" />
        </mxCell>
        <mxCell id="5jrLgaf3onoMuKUvjU_7-8" value="&lt;font style=&quot;font-size: 9px;&quot;&gt;Новый список&lt;/font&gt;" style="whiteSpace=wrap;html=1;rounded=1;" vertex="1" parent="q75rT8eUtKFCvKkvTnT9-8">
          <mxGeometry x="777.5" y="93.62" width="60" height="30" as="geometry" />
        </mxCell>
        <mxCell id="5jrLgaf3onoMuKUvjU_7-13" style="edgeStyle=orthogonalEdgeStyle;rounded=0;orthogonalLoop=1;jettySize=auto;html=1;entryX=0.5;entryY=0;entryDx=0;entryDy=0;" edge="1" parent="q75rT8eUtKFCvKkvTnT9-8" source="q75rT8eUtKFCvKkvTnT9-54" target="5jrLgaf3onoMuKUvjU_7-10">
          <mxGeometry relative="1" as="geometry" />
        </mxCell>
        <mxCell id="5jrLgaf3onoMuKUvjU_7-56" style="edgeStyle=orthogonalEdgeStyle;rounded=0;orthogonalLoop=1;jettySize=auto;html=1;entryX=0.5;entryY=0;entryDx=0;entryDy=0;" edge="1" parent="q75rT8eUtKFCvKkvTnT9-8" source="q75rT8eUtKFCvKkvTnT9-54" target="5jrLgaf3onoMuKUvjU_7-43">
          <mxGeometry relative="1" as="geometry">
            <Array as="points">
              <mxPoint x="900" y="7" />
              <mxPoint x="1422" y="7" />
            </Array>
          </mxGeometry>
        </mxCell>
        <mxCell id="q75rT8eUtKFCvKkvTnT9-54" value="&lt;font style=&quot;font-size: 9px;&quot;&gt;Просмотр списка&lt;/font&gt;" style="whiteSpace=wrap;html=1;rounded=1;" parent="q75rT8eUtKFCvKkvTnT9-8" vertex="1">
          <mxGeometry x="860" y="56.120000000000005" width="60" height="30" as="geometry" />
        </mxCell>
        <mxCell id="5jrLgaf3onoMuKUvjU_7-40" style="edgeStyle=orthogonalEdgeStyle;rounded=0;orthogonalLoop=1;jettySize=auto;html=1;entryX=0;entryY=0.5;entryDx=0;entryDy=0;" edge="1" parent="q75rT8eUtKFCvKkvTnT9-8" source="5jrLgaf3onoMuKUvjU_7-10" target="q75rT8eUtKFCvKkvTnT9-55">
          <mxGeometry relative="1" as="geometry" />
        </mxCell>
        <mxCell id="5jrLgaf3onoMuKUvjU_7-10" value="&lt;font style=&quot;font-size: 9px;&quot;&gt;Загрузка и отображение&lt;/font&gt;" style="whiteSpace=wrap;html=1;rounded=1;" vertex="1" parent="q75rT8eUtKFCvKkvTnT9-8">
          <mxGeometry x="860" y="162.12" width="60" height="30" as="geometry" />
        </mxCell>
        <mxCell id="5jrLgaf3onoMuKUvjU_7-35" style="edgeStyle=orthogonalEdgeStyle;rounded=0;orthogonalLoop=1;jettySize=auto;html=1;entryX=0.5;entryY=0;entryDx=0;entryDy=0;" edge="1" parent="q75rT8eUtKFCvKkvTnT9-8" source="q75rT8eUtKFCvKkvTnT9-55" target="5jrLgaf3onoMuKUvjU_7-34">
          <mxGeometry relative="1" as="geometry" />
        </mxCell>
        <mxCell id="5jrLgaf3onoMuKUvjU_7-55" style="edgeStyle=orthogonalEdgeStyle;rounded=0;orthogonalLoop=1;jettySize=auto;html=1;entryX=0.5;entryY=0;entryDx=0;entryDy=0;" edge="1" parent="q75rT8eUtKFCvKkvTnT9-8" source="q75rT8eUtKFCvKkvTnT9-55" target="5jrLgaf3onoMuKUvjU_7-43">
          <mxGeometry relative="1" as="geometry">
            <Array as="points">
              <mxPoint x="1000" y="7" />
              <mxPoint x="1422" y="7" />
            </Array>
          </mxGeometry>
        </mxCell>
        <mxCell id="q75rT8eUtKFCvKkvTnT9-55" value="&lt;font style=&quot;font-size: 9px;&quot;&gt;Добавление товара&lt;/font&gt;" style="whiteSpace=wrap;html=1;rounded=1;" parent="q75rT8eUtKFCvKkvTnT9-8" vertex="1">
          <mxGeometry x="960" y="56.120000000000005" width="60" height="30" as="geometry" />
        </mxCell>
        <mxCell id="5jrLgaf3onoMuKUvjU_7-41" style="edgeStyle=orthogonalEdgeStyle;rounded=0;orthogonalLoop=1;jettySize=auto;html=1;entryX=0;entryY=0.5;entryDx=0;entryDy=0;" edge="1" parent="q75rT8eUtKFCvKkvTnT9-8" source="5jrLgaf3onoMuKUvjU_7-14" target="q75rT8eUtKFCvKkvTnT9-56">
          <mxGeometry relative="1" as="geometry">
            <Array as="points">
              <mxPoint x="1050" y="177.62" />
              <mxPoint x="1050" y="71.62" />
            </Array>
          </mxGeometry>
        </mxCell>
        <mxCell id="5jrLgaf3onoMuKUvjU_7-46" style="edgeStyle=orthogonalEdgeStyle;rounded=0;orthogonalLoop=1;jettySize=auto;html=1;entryX=1;entryY=0.5;entryDx=0;entryDy=0;" edge="1" parent="q75rT8eUtKFCvKkvTnT9-8" source="5jrLgaf3onoMuKUvjU_7-14" target="q75rT8eUtKFCvKkvTnT9-55">
          <mxGeometry relative="1" as="geometry">
            <Array as="points">
              <mxPoint x="1050" y="177.62" />
              <mxPoint x="1050" y="71.62" />
            </Array>
          </mxGeometry>
        </mxCell>
        <mxCell id="5jrLgaf3onoMuKUvjU_7-50" style="edgeStyle=orthogonalEdgeStyle;rounded=0;orthogonalLoop=1;jettySize=auto;html=1;entryX=0;entryY=0.5;entryDx=0;entryDy=0;exitX=0;exitY=0.5;exitDx=0;exitDy=0;" edge="1" parent="q75rT8eUtKFCvKkvTnT9-8" source="5jrLgaf3onoMuKUvjU_7-14" target="q75rT8eUtKFCvKkvTnT9-55">
          <mxGeometry relative="1" as="geometry">
            <Array as="points">
              <mxPoint x="940" y="176.62" />
              <mxPoint x="940" y="71.62" />
            </Array>
          </mxGeometry>
        </mxCell>
        <mxCell id="5jrLgaf3onoMuKUvjU_7-14" value="&lt;font style=&quot;font-size: 9px;&quot;&gt;Сохранение информации&lt;/font&gt;" style="whiteSpace=wrap;html=1;rounded=1;" vertex="1" parent="q75rT8eUtKFCvKkvTnT9-8">
          <mxGeometry x="960" y="162.12" width="60" height="30" as="geometry" />
        </mxCell>
        <mxCell id="5jrLgaf3onoMuKUvjU_7-18" style="edgeStyle=orthogonalEdgeStyle;rounded=0;orthogonalLoop=1;jettySize=auto;html=1;entryX=0.5;entryY=0;entryDx=0;entryDy=0;" edge="1" parent="q75rT8eUtKFCvKkvTnT9-8" source="q75rT8eUtKFCvKkvTnT9-56" target="5jrLgaf3onoMuKUvjU_7-17">
          <mxGeometry relative="1" as="geometry" />
        </mxCell>
        <mxCell id="5jrLgaf3onoMuKUvjU_7-54" style="edgeStyle=orthogonalEdgeStyle;rounded=0;orthogonalLoop=1;jettySize=auto;html=1;entryX=0.5;entryY=0;entryDx=0;entryDy=0;" edge="1" parent="q75rT8eUtKFCvKkvTnT9-8" source="q75rT8eUtKFCvKkvTnT9-56" target="5jrLgaf3onoMuKUvjU_7-43">
          <mxGeometry relative="1" as="geometry">
            <Array as="points">
              <mxPoint x="1120" y="7" />
              <mxPoint x="1422" y="7" />
            </Array>
          </mxGeometry>
        </mxCell>
        <mxCell id="q75rT8eUtKFCvKkvTnT9-56" value="&lt;font size=&quot;1&quot;&gt;Редактирование товара&lt;/font&gt;" style="whiteSpace=wrap;html=1;rounded=1;" parent="q75rT8eUtKFCvKkvTnT9-8" vertex="1">
          <mxGeometry x="1070" y="56.120000000000005" width="80" height="30" as="geometry" />
        </mxCell>
        <mxCell id="5jrLgaf3onoMuKUvjU_7-20" style="edgeStyle=orthogonalEdgeStyle;rounded=0;orthogonalLoop=1;jettySize=auto;html=1;entryX=0.5;entryY=0;entryDx=0;entryDy=0;" edge="1" parent="q75rT8eUtKFCvKkvTnT9-8" source="5jrLgaf3onoMuKUvjU_7-17" target="5jrLgaf3onoMuKUvjU_7-19">
          <mxGeometry relative="1" as="geometry" />
        </mxCell>
        <mxCell id="5jrLgaf3onoMuKUvjU_7-48" style="edgeStyle=orthogonalEdgeStyle;rounded=0;orthogonalLoop=1;jettySize=auto;html=1;entryX=0;entryY=0.5;entryDx=0;entryDy=0;" edge="1" parent="q75rT8eUtKFCvKkvTnT9-8" source="5jrLgaf3onoMuKUvjU_7-17" target="q75rT8eUtKFCvKkvTnT9-57">
          <mxGeometry relative="1" as="geometry">
            <Array as="points">
              <mxPoint x="1170" y="119.62" />
              <mxPoint x="1170" y="71.62" />
            </Array>
          </mxGeometry>
        </mxCell>
        <mxCell id="5jrLgaf3onoMuKUvjU_7-17" value="&lt;font size=&quot;1&quot;&gt;Изменение данных&lt;/font&gt;" style="whiteSpace=wrap;html=1;rounded=1;" vertex="1" parent="q75rT8eUtKFCvKkvTnT9-8">
          <mxGeometry x="1070" y="104.62" width="80" height="30" as="geometry" />
        </mxCell>
        <mxCell id="5jrLgaf3onoMuKUvjU_7-51" style="edgeStyle=orthogonalEdgeStyle;rounded=0;orthogonalLoop=1;jettySize=auto;html=1;entryX=1;entryY=0.5;entryDx=0;entryDy=0;exitX=1;exitY=0.5;exitDx=0;exitDy=0;" edge="1" parent="q75rT8eUtKFCvKkvTnT9-8" source="5jrLgaf3onoMuKUvjU_7-19" target="q75rT8eUtKFCvKkvTnT9-56">
          <mxGeometry relative="1" as="geometry">
            <Array as="points">
              <mxPoint x="1160" y="177.62" />
              <mxPoint x="1160" y="71.62" />
            </Array>
          </mxGeometry>
        </mxCell>
        <mxCell id="5jrLgaf3onoMuKUvjU_7-19" value="&lt;font style=&quot;font-size: 9px;&quot;&gt;Сохранение изменений&lt;/font&gt;" style="whiteSpace=wrap;html=1;rounded=1;" vertex="1" parent="q75rT8eUtKFCvKkvTnT9-8">
          <mxGeometry x="1080" y="162.12" width="60" height="30" as="geometry" />
        </mxCell>
        <mxCell id="5jrLgaf3onoMuKUvjU_7-26" style="edgeStyle=orthogonalEdgeStyle;rounded=0;orthogonalLoop=1;jettySize=auto;html=1;entryX=0.5;entryY=0;entryDx=0;entryDy=0;" edge="1" parent="q75rT8eUtKFCvKkvTnT9-8" source="q75rT8eUtKFCvKkvTnT9-57" target="5jrLgaf3onoMuKUvjU_7-24">
          <mxGeometry relative="1" as="geometry" />
        </mxCell>
        <mxCell id="5jrLgaf3onoMuKUvjU_7-53" style="edgeStyle=orthogonalEdgeStyle;rounded=0;orthogonalLoop=1;jettySize=auto;html=1;entryX=0.5;entryY=0;entryDx=0;entryDy=0;exitX=0.5;exitY=0;exitDx=0;exitDy=0;" edge="1" parent="q75rT8eUtKFCvKkvTnT9-8" source="q75rT8eUtKFCvKkvTnT9-57" target="5jrLgaf3onoMuKUvjU_7-43">
          <mxGeometry relative="1" as="geometry">
            <Array as="points">
              <mxPoint x="1220" y="56" />
              <mxPoint x="1220" y="7" />
              <mxPoint x="1422" y="7" />
            </Array>
          </mxGeometry>
        </mxCell>
        <mxCell id="q75rT8eUtKFCvKkvTnT9-57" value="&lt;font style=&quot;font-size: 9px;&quot;&gt;Удаление товара&lt;/font&gt;" style="whiteSpace=wrap;html=1;rounded=1;" parent="q75rT8eUtKFCvKkvTnT9-8" vertex="1">
          <mxGeometry x="1180" y="56.120000000000005" width="60" height="30" as="geometry" />
        </mxCell>
        <mxCell id="5jrLgaf3onoMuKUvjU_7-30" style="edgeStyle=orthogonalEdgeStyle;rounded=0;orthogonalLoop=1;jettySize=auto;html=1;entryX=0.5;entryY=0;entryDx=0;entryDy=0;" edge="1" parent="q75rT8eUtKFCvKkvTnT9-8" source="q75rT8eUtKFCvKkvTnT9-58" target="5jrLgaf3onoMuKUvjU_7-28">
          <mxGeometry relative="1" as="geometry" />
        </mxCell>
        <mxCell id="5jrLgaf3onoMuKUvjU_7-52" style="edgeStyle=orthogonalEdgeStyle;rounded=0;orthogonalLoop=1;jettySize=auto;html=1;entryX=0.5;entryY=0;entryDx=0;entryDy=0;exitX=0.5;exitY=0;exitDx=0;exitDy=0;" edge="1" parent="q75rT8eUtKFCvKkvTnT9-8" source="q75rT8eUtKFCvKkvTnT9-58" target="5jrLgaf3onoMuKUvjU_7-43">
          <mxGeometry relative="1" as="geometry">
            <Array as="points">
              <mxPoint x="1330" y="56" />
              <mxPoint x="1330" y="7" />
              <mxPoint x="1422" y="7" />
            </Array>
          </mxGeometry>
        </mxCell>
        <mxCell id="q75rT8eUtKFCvKkvTnT9-58" value="&lt;font style=&quot;font-size: 9px;&quot;&gt;Удаление списка&lt;/font&gt;" style="whiteSpace=wrap;html=1;rounded=1;" parent="q75rT8eUtKFCvKkvTnT9-8" vertex="1">
          <mxGeometry x="1290" y="56.120000000000005" width="60" height="30" as="geometry" />
        </mxCell>
        <mxCell id="5jrLgaf3onoMuKUvjU_7-27" style="edgeStyle=orthogonalEdgeStyle;rounded=0;orthogonalLoop=1;jettySize=auto;html=1;entryX=0.5;entryY=0;entryDx=0;entryDy=0;" edge="1" parent="q75rT8eUtKFCvKkvTnT9-8" source="5jrLgaf3onoMuKUvjU_7-24" target="5jrLgaf3onoMuKUvjU_7-25">
          <mxGeometry relative="1" as="geometry" />
        </mxCell>
        <mxCell id="5jrLgaf3onoMuKUvjU_7-24" value="&lt;font style=&quot;font-size: 9px;&quot;&gt;Подтверждение удаления&lt;/font&gt;" style="whiteSpace=wrap;html=1;rounded=1;" vertex="1" parent="q75rT8eUtKFCvKkvTnT9-8">
          <mxGeometry x="1175" y="104.62" width="70" height="30" as="geometry" />
        </mxCell>
        <mxCell id="5jrLgaf3onoMuKUvjU_7-25" value="&lt;font style=&quot;font-size: 9px;&quot;&gt;Удаление информации&lt;/font&gt;" style="whiteSpace=wrap;html=1;rounded=1;" vertex="1" parent="q75rT8eUtKFCvKkvTnT9-8">
          <mxGeometry x="1175" y="162.12" width="70" height="30" as="geometry" />
        </mxCell>
        <mxCell id="5jrLgaf3onoMuKUvjU_7-31" style="edgeStyle=orthogonalEdgeStyle;rounded=0;orthogonalLoop=1;jettySize=auto;html=1;entryX=0.5;entryY=0;entryDx=0;entryDy=0;" edge="1" parent="q75rT8eUtKFCvKkvTnT9-8" source="5jrLgaf3onoMuKUvjU_7-28" target="5jrLgaf3onoMuKUvjU_7-29">
          <mxGeometry relative="1" as="geometry" />
        </mxCell>
        <mxCell id="5jrLgaf3onoMuKUvjU_7-28" value="&lt;font style=&quot;font-size: 9px;&quot;&gt;Подтверждение удаления&lt;/font&gt;" style="whiteSpace=wrap;html=1;rounded=1;" vertex="1" parent="q75rT8eUtKFCvKkvTnT9-8">
          <mxGeometry x="1285" y="104.62" width="70" height="30" as="geometry" />
        </mxCell>
        <mxCell id="5jrLgaf3onoMuKUvjU_7-29" value="&lt;font style=&quot;font-size: 9px;&quot;&gt;Удаление списка&lt;/font&gt;" style="whiteSpace=wrap;html=1;rounded=1;" vertex="1" parent="q75rT8eUtKFCvKkvTnT9-8">
          <mxGeometry x="1285" y="161.62" width="70" height="30" as="geometry" />
        </mxCell>
        <mxCell id="5jrLgaf3onoMuKUvjU_7-36" style="edgeStyle=orthogonalEdgeStyle;rounded=0;orthogonalLoop=1;jettySize=auto;html=1;entryX=0.5;entryY=0;entryDx=0;entryDy=0;" edge="1" parent="q75rT8eUtKFCvKkvTnT9-8" source="5jrLgaf3onoMuKUvjU_7-34" target="5jrLgaf3onoMuKUvjU_7-14">
          <mxGeometry relative="1" as="geometry" />
        </mxCell>
        <mxCell id="5jrLgaf3onoMuKUvjU_7-34" value="&lt;font style=&quot;font-size: 9px;&quot;&gt;Ввод названия и колличества&lt;/font&gt;" style="whiteSpace=wrap;html=1;rounded=1;" vertex="1" parent="q75rT8eUtKFCvKkvTnT9-8">
          <mxGeometry x="951" y="100.12" width="78" height="39" as="geometry" />
        </mxCell>
        <mxCell id="5jrLgaf3onoMuKUvjU_7-39" style="edgeStyle=orthogonalEdgeStyle;rounded=0;orthogonalLoop=1;jettySize=auto;html=1;entryX=0.5;entryY=0;entryDx=0;entryDy=0;" edge="1" parent="q75rT8eUtKFCvKkvTnT9-8" source="5jrLgaf3onoMuKUvjU_7-37" target="5jrLgaf3onoMuKUvjU_7-5">
          <mxGeometry relative="1" as="geometry" />
        </mxCell>
        <mxCell id="5jrLgaf3onoMuKUvjU_7-37" value="&lt;font style=&quot;font-size: 9px;&quot;&gt;Ввод названия&lt;/font&gt;" style="whiteSpace=wrap;html=1;rounded=1;" vertex="1" parent="q75rT8eUtKFCvKkvTnT9-8">
          <mxGeometry x="707.5" y="104.62" width="60" height="30" as="geometry" />
        </mxCell>
        <mxCell id="5jrLgaf3onoMuKUvjU_7-43" value="" style="ellipse;whiteSpace=wrap;html=1;aspect=fixed;" vertex="1" parent="q75rT8eUtKFCvKkvTnT9-8">
          <mxGeometry x="1405.75" y="53.62" width="32.5" height="32.5" as="geometry" />
        </mxCell>
        <mxCell id="5jrLgaf3onoMuKUvjU_7-44" value="&lt;font style=&quot;font-size: 9px;&quot;&gt;Закрытие приложения&lt;/font&gt;" style="text;html=1;align=center;verticalAlign=middle;whiteSpace=wrap;rounded=0;" vertex="1" parent="q75rT8eUtKFCvKkvTnT9-8">
          <mxGeometry x="1392" y="87.62" width="60" height="26" as="geometry" />
        </mxCell>
      </root>
    </mxGraphModel>
  </diagram>
</mxfile>
